<?xml version="1.0" encoding="utf-8"?>
<!-- Generator: Adobe Illustrator 23.0.4, SVG Export Plug-In . SVG Version: 6.00 Build 0)  -->
<svg version="1.1" id="Layer_1" xmlns="http://www.w3.org/2000/svg" xmlns:xlink="http://www.w3.org/1999/xlink" x="0px" y="0px"
	 viewBox="0 0 90 90" style="enable-background:new 0 0 90 90;" xml:space="preserve">
<g>
	<path d="M88.4,35c0-25.2-10.7-29.6-26.9-34c-13.8-3.8-49,3.1-53.6,23.5c0.1,0,0.2,0,0.4,0c-3.5,1.7-7.2,5.2-6.6,12.1
		c0.9,10.9,8.9,11.3,8.9,11.3s3.7,0.4,3.6,3.4s-0.7,10.6,1.8,11s1.3-2.9,2.5-3s0.2,3.7,2.1,3.7s2.3-4.4,4.7-4s0.9,4.7,2.5,4.7
		c1.6,0,2.9-4,4.8-3.8s1.2,4,2.8,4.1c1.6,0.1,2.3-3.5,4.6-3.4c2.2,0.1,1.3,4,2.8,4.1c1.5,0.1,1-3.8,2.6-3.8c1.6,0,2.5,4,3.8,3.8
		s0.7-3.2,0.4-6.3c-0.2-1.7,0.3-3.8,1-5.4c1.2,3.3,3.3,5.5,5.5,6.8c-0.7,6.6-0.2,15.1-3.1,16.9c-0.9,0.6-3.2,0.3-3.2,0.3
		c-0.2-3.2,1.3-5-0.8-6c-2.1-1-2.3,2.1-4,1.8s0.1-3.2-1.7-3.9c-1.8-0.7-2.5,3.3-3.8,3.3c-1.3,0-1.5-4.5-2.9-4.8s-1.3,4.1-2.6,4
		c-1.3-0.1-0.4-4.4-2.1-5c-1.8-0.6-1.1,3.4-2.8,3.4c-1.6,0-2.1-3.8-3.3-3.3c-1.2,0.5-0.5,3.1-2.3,3.3c-1.8,0.2-1.8-2.6-3.3-2.3
		s-1.9,1.1-1,4.6c0.9,3.5-2.1,5.3-0.7,10s8,3.4,14.8,3.8c6.8,0.4,21.7,5.5,25.4,3.9c3.7-1.5,3.3-17.9,3.4-21.4
		c0.1-3.5-2.3-4.2,2.3-5.3c0.9-0.2,1.5-0.6,1.9-1.2C73.6,60.5,88.3,55.1,88.4,35z M21.4,38.7c-2,5.8-5.9,7.3-10.6,6.7
		c-4.7-0.5-7.4-5.4-6.7-10.1c0.7-4.6,2.3-8.6,8.6-8.2C17.8,27.6,23.3,32.9,21.4,38.7z M35.2,51.7c-1.2,1.4-2.8-2.6-2.9-0.4
		c0,2.2-2.9,1.9-2.4,0c0.5-2-4.5,1-1.9-2.3c2.6-3.3,3.8-6.2,4.7-6.1S36.3,50.3,35.2,51.7z M42,34.4c1.9-6.2,9.3-7.4,12.6-6.9
		c3.3,0.4,7.6,4.8,7.7,9.8c0,3.2-3.7,12.6-11.1,12.4C43.8,49.5,40.1,40.6,42,34.4z"/>
	<path d="M14.6,37.7C14,38.3,14,39.4,14.7,40c0.7,0.6,1.7,0.6,2.4-0.1c0.6-0.7,0.6-1.7-0.1-2.4C16.3,37,15.3,37,14.6,37.7z"/>
	<path d="M55.8,41.4c0.7,0.6,1.7,0.6,2.4-0.1c0.6-0.7,0.6-1.7-0.1-2.4c-0.7-0.6-1.7-0.6-2.4,0.1C55.1,39.7,55.1,40.7,55.8,41.4z"/>
</g>
</svg>
